<svg id="Layer_1" data-name="Layer 1" xmlns="http://www.w3.org/2000/svg" viewBox="0 0 375.49 375.49"><defs><style>.cls-1{fill:#d1d3d4;}.cls-2{fill:#808285;}</style></defs><title>graylogo</title><rect class="cls-1" width="375.49" height="375.49" rx="26.3" ry="26.3"/><rect class="cls-2" x="24.34" y="24.34" width="326.8" height="326.81" rx="22.89" ry="22.89"/><path class="cls-1" d="M239.75,420.43A40.48,40.48,0,1,1,285.48,386l39.3,5.53a80.19,80.19,0,1,0-33.92,54.84l-22.43-32.79A40.29,40.29,0,0,1,239.75,420.43Z" transform="translate(-118.48 -208)"/><path class="cls-1" d="M417.49,314.13l-2.84,20.18h0l-9.5,67.48h0c0,0.35,0,.7-0.09,1.05A40.53,40.53,0,1,1,389.43,365l5.91-42a80.08,80.08,0,0,0-109.82,63h0a80.17,80.17,0,0,0,158.77,22.36h0l12.49-88.69Z" transform="translate(-118.48 -208)"/></svg>