<svg id="Layer_1" data-name="Layer 1" xmlns="http://www.w3.org/2000/svg" xmlns:xlink="http://www.w3.org/1999/xlink" viewBox="0 0 491.56 295.61"><defs><style>.cls-1{fill:url(#linear-gradient);}.cls-2{fill:url(#linear-gradient-2);}</style><linearGradient id="linear-gradient" x1="54.72" y1="449.81" x2="197.03" y2="480.97" gradientTransform="translate(64.15 -67.19) rotate(0.45)" gradientUnits="userSpaceOnUse"><stop offset="0" stop-color="#2a2a2a"/><stop offset="1"/></linearGradient><linearGradient id="linear-gradient-2" x1="278.12" y1="394.26" x2="420.43" y2="469.05" gradientTransform="translate(64.15 -67.19) rotate(0.45)" gradientUnits="userSpaceOnUse"><stop offset="0" stop-color="#0082c9"/><stop offset="0.23" stop-color="#0d69b7"/><stop offset="0.51" stop-color="#1852a7"/><stop offset="0.77" stop-color="#1f459d"/><stop offset="1" stop-color="#21409a"/></linearGradient></defs><title>logo</title><path class="cls-1" d="M200.7,473.14a70.63,70.63,0,1,1,71.17-70.08l69.25,0.53a139.92,139.92,0,1,0-46.05,102.65l-46.33-51.56A70.29,70.29,0,0,1,200.7,473.14Z" transform="translate(-61.36 -248.41)"/><path class="cls-2" d="M483.68,248.41L483.4,284l0,0-0.91,118.89h-0.06c0,0.62.08,1.22,0.08,1.84a70.71,70.71,0,1,1-35.62-61.86l0.57-73.92A139.73,139.73,0,0,0,272,403.06h0a139.88,139.88,0,1,0,279.75,2.16h0l1.21-156.28Z" transform="translate(-61.36 -248.41)"/></svg>